<svg id="Layer_1" data-name="Layer 1" xmlns="http://www.w3.org/2000/svg" xmlns:xlink="http://www.w3.org/1999/xlink" viewBox="0 0 260.09 278.27"><defs><style>.cls-1{fill:#edac77;}.cls-2{fill:#f2f2f3;}.cls-3{fill:#2b1b0a;}.cls-4{fill:url(#linear-gradient);}</style><linearGradient id="linear-gradient" x1="675.84" y1="253.16" x2="675.84" y2="253.16" gradientUnits="userSpaceOnUse"><stop offset="0" stop-color="#fff"/><stop offset="1"/></linearGradient></defs><title>HumanHi</title><path class="cls-1" d="M574.93,258.63c0,31.3-24.55,56.67-54.83,56.67s-54.83-25.37-54.83-56.67S489.81,202,520.09,202C558.38,202,574.93,227.34,574.93,258.63Z" transform="translate(-434.26 -194.34)"/><path class="cls-2" d="M501.32,325.63s-29.06,6.33-38.73,18S434.26,457,434.26,457v4.33h16s12.67-67,26-72.67,9.33,47,8.67,53-5.33,19.67-5.33,19.67,56.67,13.67,82.67,0c0,0-17.33-53.33,3.33-100.67,0,0,47,15.67,49.33,15.67s4.67,4.67,29.67-12S670.26,345,670.26,345s0-6.74-9.33-11.37c0,0-27,22.7-41.33,21S576.93,334.3,560.93,331l-18-4.61Z" transform="translate(-434.26 -194.34)"/><path class="cls-1" d="M501.32,311.89s1.06,13.08,0,18.74c0,0,20.27,6.67,38.94,0,0,0-5-13.25,0-19.29H501.32Z" transform="translate(-434.26 -194.34)"/><path class="cls-3" d="M599.34,496.22" transform="translate(-434.26 -194.34)"/><path class="cls-3" d="M479,465.81s48,14.31,82.5,1.41l.17-5.07s-32.17,13.33-81.67-3Z" transform="translate(-434.26 -194.34)"/><path class="cls-1" d="M670.26,345s6.33-4.75,8.08-4.75,16.25-3,16-13-10.75-19-13.75-17.75-10.33,9.75-10.33,9.75,2.17-11.25,0-11.75-8.17,2.75-8.92,11.75a110,110,0,0,0-.42,14.38Z" transform="translate(-434.26 -194.34)"/><path class="cls-3" d="M466.93,263.3,477,246.86l2.57-12.9h80.67l3.34,12.83,11.14,16.5a8.23,8.23,0,0,0,4.19-4.67c1.29-4.42-.58-9.92-2.67-12s2-3,1.67-5-.33,2-.33-2-1-3.33.33-5.67-4-2.33-3-4,1-.33,0-4,1.67-1.67-1-3.67.67-1.33-2.67-2-5,0-5,0l-1.33-4a8.36,8.36,0,0,0-1.67-2.67,9.86,9.86,0,0,1-1-1.33L560.59,210a9.69,9.69,0,0,1-3.33-1.67l-1-1a17.4,17.4,0,0,0-4-2c-2.67-1-1.67-2.33-3.67-3.33a28.17,28.17,0,0,0-6-1.67s-3,1-4,0-1,0-4.33-1.67-.67-1.33-3.33-1.67l-2.67-.33h-4.05c-1.95-.67-6.95-2-8.61-2h-9.33s-4.33-.67-6.67,0,1.73,2,1.73,2l-6.39,3h-2s-2.33-3-5.33,0-2.67,3.67-.67,3.67c0,0,.33,1.67-2,2.33l-2.33.67s-4.33,1.67-4.33,2.67,1.33,3.33-1.33,3.33-5.33-.67-4-.33,2.33-.67-.67,2.33-3.33.67-3,3,1.67,3.67.67,4l-1,.33a27.33,27.33,0,0,0-3.67,1.33c-1.33.67-.33-1.33-1.33.67s-2-1-1,2-.41,7-.41,7-2.25-2-1.92,1-.07,3.33,0,5.33l0,2s-2.33,4-2.33,5v7a4.8,4.8,0,0,1,2,2.33c.33,1.33,3.33,3.33,3.33,3.33Z" transform="translate(-434.26 -194.34)"/><circle class="cls-3" cx="69.13" cy="61.96" r="3.13"/><circle class="cls-3" cx="102.87" cy="61.96" r="3.13"/><path class="cls-3" d="M509.59,270.22" transform="translate(-434.26 -194.34)"/><path class="cls-4" d="M675.84,253.16" transform="translate(-434.26 -194.34)"/></svg>