<svg id="Layer_1" data-name="Layer 1" xmlns="http://www.w3.org/2000/svg" viewBox="0 0 311.41 433.76"><defs><style>.cls-1{fill:#353c42;}.cls-2{fill:#468676;}.cls-3{fill:#225a4e;}.cls-4{fill:#edac77;}.cls-5{fill:#2b1b0a;}.cls-6{fill:#19130e;}.cls-7{fill:#f2f2f3;}.cls-8{fill:#f8ffff;}.cls-9{fill:#eef7f9;}.cls-10{fill:#777;}</style></defs><title>HumanWork</title><path class="cls-1" d="M608.47,627.14" transform="translate(-581.06 -145.04)"/><rect class="cls-2" x="621.22" y="523.24" width="9.75" height="42.25" transform="matrix(0.84, 0.54, -0.54, 0.84, -188.54, -396.78)"/><rect class="cls-2" x="49.35" y="382.28" width="41.5" height="11"/><rect class="cls-2" x="673.47" y="523.99" width="9.75" height="42.25" transform="translate(962.53 493.18) rotate(147.36)"/><circle class="cls-3" cx="30.35" cy="423.03" r="9.75"/><circle class="cls-3" cx="112.62" cy="424.01" r="9.75"/><rect class="cls-2" x="63.56" y="351.35" width="11.5" height="27.43"/><path class="cls-3" d="M630.84,527.45h43.07s-5.93-10.16-22.41-10.14C636.24,517.34,631.82,526.88,630.84,527.45Z" transform="translate(-581.06 -145.04)"/><path class="cls-3" d="M663.66,494.33H634.09s4.07,7,15.39,7C660,501.27,663,494.72,663.66,494.33Z" transform="translate(-581.06 -145.04)"/><path class="cls-4" d="M759.64,237c0-29.62-23.07-53.63-51.53-53.63s-51.53,24-51.53,53.63,23.07,53.63,51.53,53.63c7,0,7.66.42,13.24-2.21,9.31-4.38,22.32-13.89,28-23.54C754.09,256.73,759.64,247.18,759.64,237Z" transform="translate(-581.06 -145.04)"/><path class="cls-4" d="M681.44,309.08s2.87-14.73,11.1-18.49-30.83-42-30.83-42l-10.55,27.9S651.48,298.11,681.44,309.08Z" transform="translate(-581.06 -145.04)"/><path class="cls-5" d="M688.16,230.82s28.25-21.75,34.75-35.5c0,0,24.25,24.42,45,28.83,0,0,1.75-8.08,3.75-8.58s.25-2.75,0-4.75.95-6.25.95-6.25-.2,0-1.7-2.5-1-3-.5-4.5-.75-3-.25-4.5-1-.5.5-1.5,2.39-5.25,1.95-5.25-3.95.5-4.95-5.5-4.25-2.75-6-6.25a43,43,0,0,0-3-5.25s-.75.5-2-1.5-.75-.5-2.25-3.25-.75-.75-1.5-2.75-4.25-4-4.25-4-2.5,3.75-5,1.75-1.75-1.75-4-3-1.25.25-2.25-1.25a15.75,15.75,0,0,0-4.5-4.75c-2.25-1.5-3-1.25-4.25-1.75s-.5,3.25-.5,3.25-5.75-.5-8-1,.25-.5-2.25-.5-2.25,2.75-2.5,0,1.25-1-.25-2.75a4.83,4.83,0,0,0-3.58-2c-.67,0-2.42-1.75-2.42,0s3.25,0,0,1.75-3.5,1.75-5.75,2.25-3,.75-4.25,1a20.85,20.85,0,0,0-3,1c-.75.25-4,1-4,1s-4.25,4.25-6.25,4-5.75-3.75-5.75-3.75-2-1.75-3.25.5.25,3.25-1.5,4-1.5,1-3.75,1.75a14,14,0,0,1-4,.75s-1.25-1.25-1.25.25.5.25-2,3.5-13.16,3.29-13.41,4.79-4.47,4.24-2.59,4c6.08-.92-1.25.25.75,1.75s3-1.75,2,1.5-1.79,5.75-3.15,6.5-2.6,2.08-3.1,2.29,1.57,1.18,1.41,2.82-.59-.36,0,3.14,1.41,3.75,0,4.75-1.82-.25-1.49,2.25,2.83,6.75,2.83,6.75l-.25,3.25-2.69,1.5-1.06,2a7.22,7.22,0,0,0,0,2.5c.25,1.25,3.25,1,4,2.5s-1.18,3-1.34,3.75-2.77,2.75-2.77,2.75.61,1.42,1.36,1.58,3.07-2.42,1.41,0-1.88,1.67-2.77,3.92,10.11-.75,6.61,3.25-.25,6-1.5,7.75,1.5,3.83,3,2.92,13,1.08,17-2.17-3.71-20.76,6.75-24.25c8.25-2.75,10.75,3,10.75,3Z" transform="translate(-581.06 -145.04)"/><circle class="cls-6" cx="161.79" cy="88.25" r="2.7"/><path class="cls-4" d="M774.26,355.55s17.25-7.5,26-6.5,22.5,8.25,24.75,11.5,4.5,5.25,1.25,9-2,4-9.5,6-40.44.22-40.44.22S770.76,361.55,774.26,355.55Z" transform="translate(-581.06 -145.04)"/><path class="cls-7" d="M758.65,552.1s-22-56.33-25.33-78c0,0-37.25,4-61.58-1.33S625,474.43,621,451.1c0,0-7-65-4-93.67s11-74,25-96.33c0,0,5-4.67,7-3.33s26.33,42.82,29.67,42.58c0,0,1,10.76,14.33,29.76s14.67,27.33,14.67,27.33,52.33-3,56.67-1.67a36.76,36.76,0,0,0,9.33,1.33l3.13,6.91-.46,11.76S743,388.77,724,388.43s-25.67,3.67-25.67,3.67S706,421.43,709,426.43c0,0,49.61,12.07,54.33,15.67,10.16,7.74,15.55,47.42,18.67,97.33,1,15.42,29.68,22.41,27.29,27.32-6.44,13.24-50.89-1.22-50.89-1.22Z" transform="translate(-581.06 -145.04)"/><rect class="cls-2" x="200.91" y="236.51" width="110.5" height="193.5"/><rect class="cls-8" x="219.43" y="231.46" width="78.85" height="5.05"/><path class="cls-9" d="M872.38,307.92s-.87-2.5-7-3.5L870,277.67s.25,6,2.38,7.25,3.13,10.5,3.13,10.5l-1,14Z" transform="translate(-581.06 -145.04)"/><polygon class="cls-8" points="298.28 235.35 291.94 235.35 291.94 139.13 295.11 141.13 298.28 143.13 298.28 235.35"/><rect class="cls-8" x="860.79" y="225.82" width="8.32" height="122.94" transform="translate(-529.3 -269.34) rotate(8.47)"/><path class="cls-10" d="M620.16,447.13s49.13,1.27,88.82-20.7l2.55.7S672,449.8,621.16,449.47Z" transform="translate(-581.06 -145.04)"/><path class="cls-10" d="M642,261.1s22.53,30.2,38,44.7l-1.36-5.46L649,257.77S646,257.53,642,261.1Z" transform="translate(-581.06 -145.04)"/><path class="cls-2" d="M581.16,314.65l9.67,159s0,20.67,15.33,21,25,0,25,0l70,.15s15-5.48,9-16.48c-2.58-4.74-9.5-4.32-16.53-4.59-9.3-.35-18.8-.41-18.8-.41l-55.64-5.65-4.69-7.37-8-145.65s1.33-11.33-13-12.67S581.16,314.65,581.16,314.65Z" transform="translate(-581.06 -145.04)"/></svg>