<svg id="Layer_1" data-name="Layer 1" xmlns="http://www.w3.org/2000/svg" viewBox="0 0 532.02 444.1"><defs><style>.cls-1{fill:#515151;}.cls-2{fill:#38fcc0;}.cls-3{fill:#babfbf;}.cls-4{fill:#edac77;}.cls-5{fill:#2b1b0a;}.cls-6{fill:#ededed;}.cls-7{fill:#777;}.cls-8{fill:#f2f2f2;}.cls-9{fill:#6d6d6d;}.cls-10{fill:#4a6167;}.cls-11{fill:#eae289;}.cls-12{fill:#4b585e;}.cls-13{fill:#363d43;}.cls-14{fill:#7c9192;}.cls-15{fill:#353c42;}</style></defs><title>SvgDevHuman</title><rect class="cls-1" x="128.67" y="74.12" width="270" height="184"/><rect class="cls-2" x="136.67" y="81.29" width="256" height="169.67"/><rect class="cls-3" x="5" y="292.12" width="128.83" height="145.75"/><path class="cls-1" d="M446.5,210.33c0-3.33,1-5.5-.67-7.67" transform="translate(-228.5 -122.13)"/><path class="cls-4" d="M460.5,239s2,18-2.75,22.25,56,15.75,64.75,1l-2-12,.25-13.75Z" transform="translate(-228.5 -122.13)"/><path class="cls-5" d="M460.5,239l-3.25-6.25s2.25.75.75-.75-2.25-1.5-2.5-3,.25-3.75-1.5-5.25-2.25-.25-3.25-3.25-1.25-1.75-2.25-4.5-1.12-3.5-2.18-4.5a7.27,7.27,0,0,1-2.07-4c0-1,1.75-1.25,0-3s-1.25-1-1.75-3l-.5-2s2,3,0-3-.75-4.5-2-6-2.75-3.25-2.75-3.25-.5-.75-1.25-1.75-1.5-1.25-1.5-2.75,1.75-3.5,1.75-3.5,2.3-.84,1.5-3c-1.5-4-1.3-2.62.5-4.5,2.42-2.53,0-5.25-.5-6.25s-3-.5-1.25-2.25,1.25-1.75,3-2.75,2.5-4.75,2.5-6-2.75,2-.75-2.5.5-3.25,2-4.5,2.92-3,2.58-4.5.83-1.75,0-3-2.83-.75-.83-1.25,2.25.25,4-1.25a7.61,7.61,0,0,1,4.25-2H455s-1.5.25,0-2.25l1.5-2.5s-2.25-3,.75-2,2,.75,4.5,1,1.25,2,3.75.25,4.25-2.75,4.25-2.75L471,125.5h5.5s2.75.75,4.25,0,1.75.25,2.75-1.25-1-3,1-1.5,3.25,2.25,3.25,2.25a27,27,0,0,0,4.75,1.5c1,0-2,3,1,0s2.75-4.37,2.75-4.37a39.78,39.78,0,0,0,4.5,3.12c1.5.75-1.75.25,1.5.75s2-3,3.75-.75l1.75,2.25s1,1,4.75.75,3-.75,5.5.25,5-.75,5-.75l1.75,1.75a4.65,4.65,0,0,0,0,2c.25,1,.75,1,0,1.75s-1.46,2.25.4,2.25,1.35.25,3.6,1l2.25.75s-.25-2,0,1.75-3.5,2.5.25,3.75,1.75-1,3.75,1.25,2.5,3.5,2.75,5.25-2.5,3.25,0,4.75,3,0,2.5,1.5a5.53,5.53,0,0,0,.17,3.25s2.33-4,2.58.75.75,5.5,1.25,7-1.5,2,0,4.5,2,1.75,2,4.25.5,2.5,0,3.5-.75-.87-1.5,1.81-2.75,3.94-.5,6.19,5.5-1.25,2.25,2.25-3,3.25-4,5.5a9,9,0,0,0-1,5c0,2.25-1,2.25-1.5,4.5s-1.5,1.5-1.5,3.5,3.25,2.5,1.5,4.5,1.75.75-2.75,5.25-6,2.75-7.5,7l-1.5,4.25-1-1.25s-.25-4-1.5,0,0,4.75.25,5.5,1.75.5-.5,2a42.41,42.41,0,0,0-3.5,2.5c-2,1.5-2.75-.25-3,1.75s-16.75,7.5-21.25,8.5S487.25,251,460.5,239Z" transform="translate(-228.5 -122.13)"/><path class="cls-5" d="M615.25,269" transform="translate(-228.5 -122.13)"/><path class="cls-6" d="M455.41,257.26a38.94,38.94,0,0,1-6.34,4.91,63.85,63.85,0,0,1-18.9,8.09c-16.75,4.25-28.5,5.5-34,17s-28.12,40.3-36,50.75c-9.29,12.32-24,38.75-24,43s-3.5,18.75,20.75,21.75,137.75,0,137.75,0V263.26S469.92,265.26,455.41,257.26Z" transform="translate(-228.5 -122.13)"/><path class="cls-6" d="M522.46,257.17a38.94,38.94,0,0,0,6.34,4.91,63.85,63.85,0,0,0,18.9,8.09c16.75,4.25,28.5,5.5,34,17s28.12,40.3,36,50.75c9.29,12.32,24,38.75,24,43s3.5,18.75-20.75,21.75-137.75,0-137.75,0V263.17S508,265.17,522.46,257.17Z" transform="translate(-228.5 -122.13)"/><path class="cls-7" d="M450.19,260.73a26.52,26.52,0,0,0,6.31,6,21.34,21.34,0,0,0,6.25,2.5c4.07.92,10.18,2.58,16,3.05a105.39,105.39,0,0,0,16.26-.05L494,263l-9.84.11-9.84-.53-10.4-1.61L459.41,259,455,257.08Z" transform="translate(-228.5 -122.13)"/><path class="cls-7" d="M527.69,260.64a26.52,26.52,0,0,1-6.31,6,24.85,24.85,0,0,1-6.25,2.5c-5.6,1.72-7.19,2.48-13.6,2.81-7,.36-18.65.19-18.65.19l1-9.25,9.84.11,9.84-.53,10.4-1.61,4.51-1.95,4.43-1.91Z" transform="translate(-228.5 -122.13)"/><rect class="cls-8" x="4.5" y="397.35" width="130.67" height="45.02"/><circle class="cls-9" cx="69.83" cy="410.83" r="5.29"/><rect class="cls-8" x="4.5" y="347.96" width="130.67" height="45.02"/><circle class="cls-9" cx="69.83" cy="365.12" r="5.29"/><rect class="cls-8" x="4.5" y="299.37" width="130.67" height="45.02"/><circle class="cls-9" cx="69.83" cy="320.16" r="5.29"/><rect class="cls-8" y="275.37" width="181.5" height="20.5"/><polygon class="cls-10" points="453.3 273.94 456.17 267.15 456.25 263.25 509.25 263.25 507.98 267.81 508.25 274 453.3 273.94"/><rect class="cls-10" x="716.87" y="335.25" width="9.13" height="56.62" transform="translate(4.09 -401.75) rotate(26.02)"/><rect class="cls-10" x="719.43" y="297.13" width="9.12" height="48.17" transform="translate(-295.93 167.42) rotate(-21.63)"/><ellipse class="cls-11" cx="685.91" cy="306.42" rx="10.5" ry="13.5" transform="translate(-281.8 50.39) rotate(-13.8)"/><path class="cls-10" d="M678.13,288.25l19.13,3.55,30.12.45a7.68,7.68,0,0,1,5.13,7,8.87,8.87,0,0,1-5.75,9.38,101,101,0,0,0-20.25,8.65c-8,4.43-19.75,13.23-19.75,13.23Z" transform="translate(-228.5 -122.13)"/><rect class="cls-3" x="626.69" y="413.38" width="128.83" height="145.75" transform="translate(1153.72 850.37) rotate(-180)"/><rect class="cls-8" x="625.36" y="518.6" width="130.67" height="45.02" transform="translate(1152.88 960.1) rotate(-180)"/><circle class="cls-9" cx="462.19" cy="409.95" r="5.29"/><rect class="cls-8" x="625.36" y="469.21" width="130.67" height="45.02" transform="translate(1152.88 861.32) rotate(-180)"/><circle class="cls-9" cx="462.19" cy="364.25" r="5.29"/><rect class="cls-8" x="625.36" y="420.63" width="130.67" height="45.02" transform="translate(1152.88 764.14) rotate(-180)"/><circle class="cls-9" cx="462.19" cy="319.28" r="5.29"/><rect class="cls-8" x="579.02" y="396.63" width="181.5" height="20.5" transform="translate(1111.05 691.62) rotate(-180)"/><path class="cls-12" d="M492.2,322.59v243h-96s-10.67,4.67-11.67-11.33,0-187.33,0-187.33,4.56-39,53.61-44.33Z" transform="translate(-228.5 -122.13)"/><path class="cls-13" d="M495,347.56V566.23H436.48V390.56S441.09,344.89,495,347.56Z" transform="translate(-228.5 -122.13)"/><polygon class="cls-14" points="264.39 244.8 264.39 274.42 262.04 274.26 257.94 279.05 252.96 273.92 255.79 270.8 254.44 268.8 246.64 269.17 245.57 262.55 251.21 260.8 250.54 257.92 244.36 256.92 245.57 249.92 252.02 251.42 253.23 251.17 253.23 242.3 261.7 242.3 261.57 246.67 264.39 244.8"/><path class="cls-12" d="M492.17,322.59v243h96s10.67,4.67,11.67-11.33,0-187.33,0-187.33-4.56-39-53.61-44.33Z" transform="translate(-228.5 -122.13)"/><path class="cls-13" d="M491.48,347.56V566.23h56.41V390.56S543.45,344.89,491.48,347.56Z" transform="translate(-228.5 -122.13)"/><polygon class="cls-14" points="262.98 244.8 262.98 274.42 265.34 274.26 269.44 279.05 274.41 273.92 271.59 270.8 272.93 268.8 280.73 269.17 281.81 262.55 276.16 260.8 276.83 257.92 283.02 256.92 281.81 249.92 275.35 251.42 274.14 251.17 274.14 242.3 265.67 242.3 265.81 246.67 262.98 244.8"/><path class="cls-15" d="M1429.91,583.84" transform="translate(-228.5 -122.13)"/></svg>